<?xml version="1.0" standalone="no"?>
<!DOCTYPE svg PUBLIC "-//W3C//DTD SVG 20010904//EN"
 "http://www.w3.org/TR/2001/REC-SVG-20010904/DTD/svg10.dtd">
<svg version="1.0" xmlns="http://www.w3.org/2000/svg"
 width="1300.000000pt" height="1300.000000pt" viewBox="0 0 1300.000000 1300.000000"
 preserveAspectRatio="xMidYMid meet">
<metadata>
Created by potrace 1.16, written by Peter Selinger 2001-2019
</metadata>
<g transform="translate(0.000000,1300.000000) scale(0.100000,-0.100000)"
fill="#000000" stroke="none">
<path d="M6345 9319 c-419 -34 -737 -175 -1017 -451 -51 -51 -118 -111 -148
-134 -150 -111 -425 -408 -576 -620 -16 -23 -56 -79 -89 -125 -99 -139 -164
-247 -230 -384 -89 -183 -115 -266 -115 -360 0 -81 11 -110 69 -190 16 -22 50
-74 76 -115 26 -41 58 -91 70 -110 12 -19 57 -93 100 -165 115 -192 238 -375
281 -417 107 -107 248 -44 348 155 l43 85 33 -74 c69 -158 216 -339 358 -441
34 -24 62 -46 62 -49 0 -2 -33 -52 -74 -111 -146 -213 -266 -495 -331 -773
-10 -41 -19 -77 -21 -79 -18 -20 -119 184 -178 358 -58 169 -89 236 -113 245
-18 7 -82 -25 -110 -56 -34 -36 -70 -117 -82 -182 -22 -122 -7 -314 35 -442
26 -80 145 -328 169 -353 11 -11 1 -24 -56 -81 -93 -91 -129 -167 -141 -298
-15 -168 13 -254 117 -350 111 -104 230 -149 425 -159 87 -4 137 -1 205 12
133 25 137 25 146 -8 15 -56 61 -133 101 -168 102 -93 380 -117 564 -48 125
47 213 158 214 269 0 30 8 74 18 98 l17 43 70 -6 c39 -4 71 -8 72 -9 2 -1 -2
-29 -7 -62 -24 -142 -4 -225 68 -284 60 -50 127 -64 272 -57 126 6 233 24 225
38 -3 4 4 5 14 2 36 -9 137 67 208 156 16 20 23 22 40 13 65 -35 217 -31 292
8 85 43 140 139 126 221 -4 22 -3 39 2 39 13 0 149 104 201 154 154 146 273
386 291 583 9 110 0 171 -39 250 -79 160 -276 242 -445 185 -33 -12 -63 -18
-66 -14 -4 4 -14 41 -24 82 -78 333 -230 665 -393 859 l-29 34 69 59 c156 135
254 290 307 486 l18 63 42 -128 c23 -70 58 -159 77 -197 78 -154 184 -226 291
-197 89 24 139 87 228 284 76 170 164 309 288 460 26 32 62 86 80 120 31 60
32 66 32 182 0 106 -3 130 -29 205 -67 195 -132 304 -333 553 -252 314 -505
589 -806 879 -247 237 -330 303 -470 377 -215 112 -534 165 -842 140z m423
-85 c194 -28 385 -104 539 -213 79 -56 475 -432 618 -587 50 -53 95 -102 100
-108 106 -114 379 -438 472 -561 170 -225 251 -406 260 -581 5 -79 2 -97 -18
-144 -13 -30 -39 -74 -58 -99 -123 -161 -161 -213 -198 -272 -46 -74 -116
-211 -158 -312 -16 -38 -46 -88 -67 -112 -121 -137 -257 -32 -357 275 -58 180
-90 329 -111 515 -12 104 -41 279 -65 387 -7 35 -32 146 -55 248 -22 102 -43
195 -45 206 -8 36 -56 42 -69 9 -5 -15 26 -174 73 -365 17 -68 45 -208 63
-310 28 -160 32 -208 32 -355 0 -143 -4 -183 -23 -255 -69 -266 -234 -459
-526 -617 -91 -49 -292 -130 -300 -121 -3 3 7 32 22 64 32 69 39 155 18 233
l-13 51 26 0 c81 0 208 55 269 116 57 58 83 113 90 193 5 55 2 75 -17 119 -18
41 -27 52 -45 52 -38 0 -49 -23 -29 -62 11 -19 18 -56 18 -88 2 -127 -99 -225
-259 -253 -58 -10 -111 -3 -224 29 -19 6 -22 4 -16 -7 5 -8 5 -11 1 -7 -4 3
-8 10 -9 15 -2 11 -39 29 -102 49 l-55 18 0 41 c0 40 -26 83 -43 70 -4 -3 -5
-2 -2 2 3 3 -3 16 -12 27 -18 21 -18 21 3 3 20 -16 22 -16 39 3 10 11 22 17
26 14 18 -11 116 44 174 98 68 63 127 156 151 237 31 106 -14 166 -162 218
-74 26 -89 28 -249 28 -154 0 -177 -2 -243 -24 -108 -37 -189 -112 -160 -149
12 -16 11 -16 -6 -2 -18 15 -19 13 -14 -51 7 -87 52 -171 136 -256 74 -76 150
-115 235 -121 l57 -4 0 -48 c0 -95 -5 -104 -83 -143 -40 -20 -84 -39 -99 -42
-16 -4 -26 -10 -23 -14 2 -4 -51 -7 -118 -7 -115 1 -126 3 -188 32 -74 35
-142 92 -166 138 -9 17 -19 58 -22 90 -6 62 -24 85 -55 73 -26 -10 -22 -120 8
-182 47 -100 179 -194 306 -218 l57 -11 -5 -50 c-5 -49 -4 -50 14 -36 18 14
18 14 1 -6 -17 -20 -17 -26 -3 -94 9 -40 29 -100 45 -132 l29 -60 -36 6 c-451
79 -753 305 -910 683 -32 76 -36 97 -34 158 4 119 21 259 68 545 25 151 52
327 60 390 13 106 19 290 10 290 -2 0 -11 3 -19 6 -30 11 -47 -24 -47 -95 0
-88 -19 -236 -74 -571 -43 -267 -58 -378 -72 -545 -8 -97 -50 -212 -108 -298
-47 -71 -95 -107 -142 -107 -55 0 -107 69 -341 455 -77 127 -155 253 -174 281
-125 185 -119 173 -119 236 0 68 31 168 90 295 22 46 40 86 40 88 0 26 261
411 398 586 106 136 363 402 440 456 37 26 122 100 188 164 67 65 141 130 164
146 68 45 163 103 185 112 11 5 45 20 75 34 114 52 315 103 470 120 101 11
381 6 478 -9z m-411 -2185 c109 -41 -16 -172 -172 -180 -39 -2 -50 1 -65 20
-58 78 125 203 237 160z m1040 -1136 c146 -189 275 -488 354 -815 21 -89 21
-99 7 -115 -30 -35 -47 -78 -37 -96 16 -28 45 -20 75 21 52 69 109 100 198
109 93 8 162 -16 229 -81 75 -72 91 -111 95 -229 3 -82 0 -111 -22 -187 -70
-243 -245 -461 -460 -570 -34 -18 -43 -36 -28 -61 7 -10 12 -40 12 -65 0 -40
-5 -51 -38 -84 -56 -56 -159 -76 -255 -49 -33 9 -37 13 -31 32 l7 22 -24 -20
c-13 -11 -9 -4 8 15 25 27 37 54 50 115 16 69 18 133 18 460 0 416 -8 523 -56
775 -40 205 -67 307 -86 314 -15 6 -53 -10 -53 -22 0 -4 11 -52 25 -106 32
-127 71 -341 87 -481 8 -70 13 -248 13 -485 0 -326 -2 -384 -18 -444 -26 -102
-72 -190 -130 -249 -59 -60 -117 -91 -196 -105 l-54 -10 6 48 c3 25 16 67 28
92 26 55 20 81 -17 76 -36 -4 -73 -76 -82 -159 l-7 -64 -62 -3 c-57 -3 -63 -1
-64 18 -1 11 -2 26 -3 33 -3 22 16 82 36 110 25 34 20 71 -9 75 -40 6 -103
-109 -103 -189 0 -26 -2 -28 -24 -18 -34 16 -67 65 -73 108 -4 33 31 265 92
596 58 319 74 650 46 938 -14 138 -24 167 -56 167 -24 0 -33 -32 -24 -95 16
-124 22 -497 10 -635 -21 -228 -97 -687 -115 -693 -6 -1 -39 -1 -72 1 l-62 4
-7 46 c-15 99 -92 201 -195 259 -29 16 -51 37 -55 50 -12 49 -35 288 -44 458
-13 231 -8 339 26 566 5 32 2 38 -16 44 -49 15 -65 -34 -82 -258 -17 -227 7
-607 57 -882 32 -182 36 -191 105 -295 62 -92 89 -153 89 -199 0 -46 -47 -125
-94 -159 -52 -37 -56 -38 -56 -12 0 34 -39 124 -71 163 -32 39 -59 47 -79 22
-11 -13 -7 -24 23 -68 34 -49 68 -150 55 -163 -3 -3 -30 -8 -60 -11 l-55 -5
-22 54 c-31 76 -106 170 -133 166 -43 -6 -45 -33 -6 -80 44 -54 78 -109 78
-127 0 -11 -14 -13 -72 -7 -40 4 -82 8 -92 9 -11 1 -45 26 -76 57 -67 66 -87
121 -122 330 -21 126 -22 166 -22 580 0 406 2 461 23 625 37 292 36 272 12
280 -46 14 -53 -8 -86 -300 -38 -337 -38 -913 0 -1172 9 -57 15 -112 13 -121
-1 -9 2 -24 6 -32 7 -11 4 -10 -10 2 -18 16 -24 16 -79 1 -41 -11 -100 -16
-185 -16 -207 1 -324 40 -435 146 -76 74 -85 100 -85 244 0 171 52 267 197
362 101 67 209 102 322 104 67 2 86 5 95 19 8 14 7 22 -7 35 -14 14 -34 18
-93 18 l-76 0 7 75 c36 396 210 857 427 1132 l29 38 37 -19 c115 -58 320 -119
462 -136 50 -7 61 -13 121 -71 124 -119 245 -152 362 -101 64 29 98 67 128
146 l23 59 61 16 c125 35 334 127 420 185 17 12 33 21 36 21 4 0 33 -35 66
-77z m-2465 -600 c60 -181 135 -336 194 -402 l45 -50 -12 -116 -12 -117 -30
-11 c-17 -5 -55 -23 -86 -38 -31 -16 -59 -25 -63 -21 -20 20 -142 277 -162
342 -46 143 -59 327 -31 433 23 89 74 159 99 137 4 -5 30 -75 58 -157z m1474
-1259 c14 -18 31 -51 38 -73 11 -40 10 -121 -3 -121 -3 0 -30 37 -60 82 -51
77 -81 148 -81 190 0 17 5 16 40 -12 23 -18 52 -47 66 -66z"/>
<path d="M7005 7931 c-84 -39 -147 -136 -153 -239 -4 -55 0 -71 27 -127 37
-74 94 -127 171 -156 57 -22 88 -23 145 -8 49 14 108 74 131 135 48 127 -36
323 -167 389 -57 30 -100 31 -154 6z m53 -117 c42 -29 23 -106 -38 -158 -37
-30 -56 -33 -82 -9 -32 29 -20 114 24 161 25 26 64 29 96 6z"/>
<path d="M5782 7919 c-50 -25 -106 -86 -147 -160 -27 -49 -30 -63 -30 -144 0
-86 2 -93 34 -143 42 -67 94 -96 171 -96 102 -1 206 69 262 176 32 62 32 165
-1 232 -28 57 -92 123 -138 142 -46 20 -102 17 -151 -7z m64 -116 c17 -23 17
-43 -1 -85 -17 -41 -78 -98 -104 -98 -60 0 -64 122 -5 185 21 23 31 27 61 22
19 -4 41 -14 49 -24z"/>
</g>
</svg>
